<svg width="512" height="512" viewBox="0 0 512 512" fill="none" xmlns="http://www.w3.org/2000/svg">
  <!-- Background circle -->
  <circle cx="256" cy="256" r="256" fill="#000000"/>
  
  <!-- QR Code representation -->
  <rect x="128" y="128" width="256" height="256" fill="white" rx="16"/>
  
  <!-- QR Code pattern -->
  <rect x="144" y="144" width="48" height="48" fill="black"/>
  <rect x="320" y="144" width="48" height="48" fill="black"/>
  <rect x="144" y="320" width="48" height="48" fill="black"/>
  
  <!-- Inner squares -->
  <rect x="156" y="156" width="24" height="24" fill="white"/>
  <rect x="332" y="156" width="24" height="24" fill="white"/>
  <rect x="156" y="332" width="24" height="24" fill="white"/>
  
  <!-- Data pattern -->
  <rect x="208" y="144" width="16" height="16" fill="black"/>
  <rect x="240" y="144" width="16" height="16" fill="black"/>
  <rect x="272" y="144" width="16" height="16" fill="black"/>
  <rect x="208" y="176" width="16" height="16" fill="black"/>
  <rect x="272" y="176" width="16" height="16" fill="black"/>
  <rect x="208" y="208" width="16" height="16" fill="black"/>
  <rect x="240" y="208" width="16" height="16" fill="black"/>
  <rect x="272" y="208" width="16" height="16" fill="black"/>
  
  <!-- More data pattern -->
  <rect x="144" y="240" width="16" height="16" fill="black"/>
  <rect x="176" y="240" width="16" height="16" fill="black"/>
  <rect x="208" y="240" width="16" height="16" fill="black"/>
  <rect x="272" y="240" width="16" height="16" fill="black"/>
  <rect x="320" y="240" width="16" height="16" fill="black"/>
  <rect x="352" y="240" width="16" height="16" fill="black"/>
  
  <!-- Bottom pattern -->
  <rect x="208" y="272" width="16" height="16" fill="black"/>
  <rect x="240" y="272" width="16" height="16" fill="black"/>
  <rect x="208" y="304" width="16" height="16" fill="black"/>
  <rect x="272" y="304" width="16" height="16" fill="black"/>
  
  <!-- Scanner line effect -->
  <rect x="128" y="250" width="256" height="4" fill="#ff0000" opacity="0.7"/>
</svg>